<mxfile host="app.diagrams.net" modified="2021-05-18T05:47:45.556Z" agent="5.0 (Windows NT 10.0; Win64; x64) AppleWebKit/537.36 (KHTML, like Gecko) Chrome/90.0.4430.93 Safari/537.36 Edg/90.0.818.56" etag="PU_OP-OU8UqLcy07keUH" version="14.6.13" type="github">
  <diagram id="0U9pFDFcq5Cw8rffmfX7" name="Page-1">
    <mxGraphModel dx="1038" dy="585" grid="0" gridSize="10" guides="1" tooltips="1" connect="1" arrows="1" fold="1" page="1" pageScale="1" pageWidth="827" pageHeight="1169" math="0" shadow="0">
      <root>
        <mxCell id="0" />
        <mxCell id="1" parent="0" />
        <mxCell id="-IM5MBNO5oqZeWWgMELS-1" value="AI" style="shape=umlActor;verticalLabelPosition=bottom;verticalAlign=top;html=1;outlineConnect=0;" vertex="1" parent="1">
          <mxGeometry x="270" y="70" width="40" height="80" as="geometry" />
        </mxCell>
        <mxCell id="-IM5MBNO5oqZeWWgMELS-2" value="" style="shape=umlBoundary;whiteSpace=wrap;html=1;" vertex="1" parent="1">
          <mxGeometry x="490" y="70" width="80" height="70" as="geometry" />
        </mxCell>
        <mxCell id="-IM5MBNO5oqZeWWgMELS-3" value="" style="ellipse;shape=umlControl;whiteSpace=wrap;html=1;" vertex="1" parent="1">
          <mxGeometry x="800" y="140" width="80" height="90" as="geometry" />
        </mxCell>
        <mxCell id="-IM5MBNO5oqZeWWgMELS-4" value="" style="ellipse;shape=umlEntity;whiteSpace=wrap;html=1;" vertex="1" parent="1">
          <mxGeometry x="70" y="10" width="80" height="80" as="geometry" />
        </mxCell>
        <mxCell id="-IM5MBNO5oqZeWWgMELS-5" value="" style="ellipse;shape=umlEntity;whiteSpace=wrap;html=1;" vertex="1" parent="1">
          <mxGeometry x="70" y="230" width="80" height="80" as="geometry" />
        </mxCell>
        <mxCell id="-IM5MBNO5oqZeWWgMELS-6" value="" style="shape=umlBoundary;whiteSpace=wrap;html=1;" vertex="1" parent="1">
          <mxGeometry x="456" y="287.59000000000003" width="85" height="70" as="geometry" />
        </mxCell>
        <mxCell id="-IM5MBNO5oqZeWWgMELS-7" value="" style="ellipse;shape=umlControl;whiteSpace=wrap;html=1;" vertex="1" parent="1">
          <mxGeometry x="760" y="327.59" width="80" height="90" as="geometry" />
        </mxCell>
        <mxCell id="-IM5MBNO5oqZeWWgMELS-8" value="" style="endArrow=none;html=1;entryX=-0.03;entryY=0.537;entryDx=0;entryDy=0;entryPerimeter=0;exitX=0.5;exitY=0.5;exitDx=0;exitDy=0;exitPerimeter=0;" edge="1" parent="1" source="-IM5MBNO5oqZeWWgMELS-1" target="-IM5MBNO5oqZeWWgMELS-2">
          <mxGeometry width="50" height="50" relative="1" as="geometry">
            <mxPoint x="320" y="140" as="sourcePoint" />
            <mxPoint x="370" y="90" as="targetPoint" />
          </mxGeometry>
        </mxCell>
        <mxCell id="-IM5MBNO5oqZeWWgMELS-9" value="" style="endArrow=classic;html=1;exitX=0.59;exitY=-0.011;exitDx=0;exitDy=0;exitPerimeter=0;entryX=1.03;entryY=0.594;entryDx=0;entryDy=0;entryPerimeter=0;" edge="1" parent="1" source="-IM5MBNO5oqZeWWgMELS-2" target="-IM5MBNO5oqZeWWgMELS-2">
          <mxGeometry width="50" height="50" relative="1" as="geometry">
            <mxPoint x="510" y="70" as="sourcePoint" />
            <mxPoint x="560" y="20" as="targetPoint" />
            <Array as="points">
              <mxPoint x="537" y="30" />
              <mxPoint x="610" y="30" />
              <mxPoint x="610" y="112" />
            </Array>
          </mxGeometry>
        </mxCell>
        <mxCell id="-IM5MBNO5oqZeWWgMELS-10" value="" style="endArrow=none;html=1;entryX=-0.015;entryY=0.587;entryDx=0;entryDy=0;entryPerimeter=0;" edge="1" parent="1" target="-IM5MBNO5oqZeWWgMELS-3">
          <mxGeometry width="50" height="50" relative="1" as="geometry">
            <mxPoint x="540" y="140" as="sourcePoint" />
            <mxPoint x="650" y="150" as="targetPoint" />
          </mxGeometry>
        </mxCell>
        <mxCell id="-IM5MBNO5oqZeWWgMELS-14" value="&lt;span style=&quot;color: rgb(51 , 51 , 51) ; font-family: &amp;#34;helvetica&amp;#34; ; font-size: 12px ; font-style: italic ; font-weight: 400 ; letter-spacing: normal ; text-align: center ; text-indent: 0px ; text-transform: none ; word-spacing: 0px ; background-color: rgb(248 , 249 , 250) ; display: inline ; float: none&quot;&gt;Health Detection System Interface&lt;/span&gt;" style="text;whiteSpace=wrap;html=1;" vertex="1" parent="1">
          <mxGeometry x="470" y="140" width="130" height="30" as="geometry" />
        </mxCell>
        <mxCell id="-IM5MBNO5oqZeWWgMELS-15" value="&lt;span style=&quot;color: rgb(0, 0, 0); font-family: helvetica; font-size: 12px; font-style: normal; font-weight: 400; letter-spacing: normal; text-align: center; text-indent: 0px; text-transform: none; word-spacing: 0px; background-color: rgb(248, 249, 250); display: inline; float: none;&quot;&gt;Health Detection System&lt;/span&gt;" style="text;whiteSpace=wrap;html=1;" vertex="1" parent="1">
          <mxGeometry x="770" y="230" width="160" height="30" as="geometry" />
        </mxCell>
        <mxCell id="-IM5MBNO5oqZeWWgMELS-16" value="&lt;span style=&quot;color: rgb(0 , 0 , 0) ; font-family: &amp;#34;helvetica&amp;#34; ; font-size: 12px ; font-style: normal ; font-weight: 400 ; letter-spacing: normal ; text-align: center ; text-indent: 0px ; text-transform: none ; word-spacing: 0px ; background-color: rgb(248 , 249 , 250) ; display: inline ; float: none&quot;&gt;Dormant Cabin&lt;/span&gt;" style="text;whiteSpace=wrap;html=1;" vertex="1" parent="1">
          <mxGeometry x="70" y="90" width="110" height="30" as="geometry" />
        </mxCell>
        <mxCell id="-IM5MBNO5oqZeWWgMELS-17" value="&lt;span style=&quot;color: rgb(0 , 0 , 0) ; font-family: &amp;#34;helvetica&amp;#34; ; font-size: 12px ; font-style: normal ; font-weight: 400 ; letter-spacing: normal ; text-align: center ; text-indent: 0px ; text-transform: none ; word-spacing: 0px ; background-color: rgb(248 , 249 , 250) ; display: inline ; float: none&quot;&gt;Spacecraft Crew&lt;/span&gt;" style="text;whiteSpace=wrap;html=1;" vertex="1" parent="1">
          <mxGeometry x="55" y="310" width="110" height="30" as="geometry" />
        </mxCell>
        <mxCell id="-IM5MBNO5oqZeWWgMELS-18" value="&lt;span style=&quot;color: rgb(51, 51, 51); font-family: helvetica; font-size: 12px; font-style: italic; font-weight: 400; letter-spacing: normal; text-align: center; text-indent: 0px; text-transform: none; word-spacing: 0px; background-color: rgb(248, 249, 250); display: inline; float: none;&quot;&gt;Personnel Management System Interface&lt;/span&gt;" style="text;whiteSpace=wrap;html=1;" vertex="1" parent="1">
          <mxGeometry x="450" y="357.59000000000003" width="130" height="30" as="geometry" />
        </mxCell>
        <mxCell id="-IM5MBNO5oqZeWWgMELS-19" value="&lt;span style=&quot;color: rgb(51 , 51 , 51) ; font-family: &amp;#34;helvetica&amp;#34; ; font-style: italic ; text-align: center&quot;&gt;Personnel Management System&lt;/span&gt;" style="text;whiteSpace=wrap;html=1;" vertex="1" parent="1">
          <mxGeometry x="740" y="410" width="160" height="30" as="geometry" />
        </mxCell>
        <mxCell id="-IM5MBNO5oqZeWWgMELS-20" value="" style="endArrow=classic;html=1;entryX=1;entryY=0.625;entryDx=0;entryDy=0;entryPerimeter=0;exitX=0.5;exitY=0.5;exitDx=0;exitDy=0;exitPerimeter=0;" edge="1" parent="1" source="-IM5MBNO5oqZeWWgMELS-1" target="-IM5MBNO5oqZeWWgMELS-4">
          <mxGeometry width="50" height="50" relative="1" as="geometry">
            <mxPoint x="210" y="130" as="sourcePoint" />
            <mxPoint x="260" y="80" as="targetPoint" />
          </mxGeometry>
        </mxCell>
        <mxCell id="-IM5MBNO5oqZeWWgMELS-21" value="" style="endArrow=none;html=1;exitX=1;exitY=0.5;exitDx=0;exitDy=0;entryX=0.5;entryY=0.5;entryDx=0;entryDy=0;entryPerimeter=0;" edge="1" parent="1" source="-IM5MBNO5oqZeWWgMELS-5" target="-IM5MBNO5oqZeWWgMELS-1">
          <mxGeometry width="50" height="50" relative="1" as="geometry">
            <mxPoint x="230" y="230" as="sourcePoint" />
            <mxPoint x="320" y="110" as="targetPoint" />
          </mxGeometry>
        </mxCell>
        <mxCell id="-IM5MBNO5oqZeWWgMELS-22" value="" style="endArrow=classic;html=1;exitX=0.59;exitY=-0.011;exitDx=0;exitDy=0;exitPerimeter=0;entryX=1.03;entryY=0.594;entryDx=0;entryDy=0;entryPerimeter=0;" edge="1" parent="1">
          <mxGeometry width="50" height="50" relative="1" as="geometry">
            <mxPoint x="507.20000000000005" y="286.82000000000005" as="sourcePoint" />
            <mxPoint x="542.4000000000001" y="329.1700000000001" as="targetPoint" />
            <Array as="points">
              <mxPoint x="507" y="247.59" />
              <mxPoint x="580" y="247.59" />
              <mxPoint x="580" y="329.59000000000003" />
            </Array>
          </mxGeometry>
        </mxCell>
        <mxCell id="-IM5MBNO5oqZeWWgMELS-23" value="" style="endArrow=classic;html=1;entryX=0.315;entryY=0.12;entryDx=0;entryDy=0;entryPerimeter=0;exitX=0.5;exitY=0.5;exitDx=0;exitDy=0;exitPerimeter=0;" edge="1" parent="1" source="-IM5MBNO5oqZeWWgMELS-1" target="-IM5MBNO5oqZeWWgMELS-6">
          <mxGeometry width="50" height="50" relative="1" as="geometry">
            <mxPoint x="370" y="240" as="sourcePoint" />
            <mxPoint x="420" y="190" as="targetPoint" />
          </mxGeometry>
        </mxCell>
        <mxCell id="-IM5MBNO5oqZeWWgMELS-24" value="" style="endArrow=classic;html=1;entryX=0.125;entryY=0.28;entryDx=0;entryDy=0;entryPerimeter=0;exitX=0.889;exitY=0.897;exitDx=0;exitDy=0;exitPerimeter=0;" edge="1" parent="1" source="-IM5MBNO5oqZeWWgMELS-6" target="-IM5MBNO5oqZeWWgMELS-7">
          <mxGeometry width="50" height="50" relative="1" as="geometry">
            <mxPoint x="556" y="457.59000000000003" as="sourcePoint" />
            <mxPoint x="606" y="407.59000000000003" as="targetPoint" />
          </mxGeometry>
        </mxCell>
        <mxCell id="-IM5MBNO5oqZeWWgMELS-25" value="&lt;span style=&quot;color: rgb(0, 0, 0); font-family: helvetica; font-size: 11px; font-style: normal; font-weight: 400; letter-spacing: normal; text-align: center; text-indent: 0px; text-transform: none; word-spacing: 0px; background-color: rgb(255, 255, 255); display: inline; float: none;&quot;&gt;1.Login()&lt;/span&gt;" style="text;whiteSpace=wrap;html=1;" vertex="1" parent="1">
          <mxGeometry x="380" y="70" width="70" height="30" as="geometry" />
        </mxCell>
        <mxCell id="-IM5MBNO5oqZeWWgMELS-26" value="" style="endArrow=classic;html=1;entryX=1;entryY=1;entryDx=0;entryDy=0;" edge="1" parent="1" target="-IM5MBNO5oqZeWWgMELS-25">
          <mxGeometry width="50" height="50" relative="1" as="geometry">
            <mxPoint x="370" y="100" as="sourcePoint" />
            <mxPoint x="440" y="100" as="targetPoint" />
          </mxGeometry>
        </mxCell>
        <mxCell id="-IM5MBNO5oqZeWWgMELS-27" value="" style="endArrow=classic;html=1;" edge="1" parent="1">
          <mxGeometry width="50" height="50" relative="1" as="geometry">
            <mxPoint x="450" y="120" as="sourcePoint" />
            <mxPoint x="380" y="120" as="targetPoint" />
          </mxGeometry>
        </mxCell>
        <mxCell id="-IM5MBNO5oqZeWWgMELS-28" value="&lt;span style=&quot;color: rgb(0 , 0 , 0) ; font-family: &amp;#34;helvetica&amp;#34; ; font-style: normal ; font-weight: 400 ; letter-spacing: normal ; text-align: center ; text-indent: 0px ; text-transform: none ; word-spacing: 0px ; background-color: rgb(255 , 255 , 255) ; display: inline ; float: none&quot;&gt;&lt;font style=&quot;font-size: 10px&quot;&gt;5.Return Captain Health_Info()&lt;/font&gt;&lt;/span&gt;" style="text;whiteSpace=wrap;html=1;" vertex="1" parent="1">
          <mxGeometry x="320" y="120" width="190" height="30" as="geometry" />
        </mxCell>
        <mxCell id="-IM5MBNO5oqZeWWgMELS-29" value="&lt;span style=&quot;color: rgb(0, 0, 0); font-family: helvetica; font-size: 11px; font-style: normal; font-weight: 400; letter-spacing: normal; text-align: center; text-indent: 0px; text-transform: none; word-spacing: 0px; background-color: rgb(255, 255, 255); display: inline; float: none;&quot;&gt;2.Verify AI Identity()&lt;/span&gt;" style="text;whiteSpace=wrap;html=1;" vertex="1" parent="1">
          <mxGeometry x="520" width="130" height="30" as="geometry" />
        </mxCell>
        <mxCell id="-IM5MBNO5oqZeWWgMELS-31" value="&lt;span style=&quot;color: rgb(0, 0, 0); font-family: helvetica; font-size: 11px; font-style: normal; font-weight: 400; letter-spacing: normal; text-align: center; text-indent: 0px; text-transform: none; word-spacing: 0px; background-color: rgb(255, 255, 255); display: inline; float: none;&quot;&gt;3.Get Captain Health_Info()&lt;/span&gt;" style="text;whiteSpace=wrap;html=1;rotation=10;" vertex="1" parent="1">
          <mxGeometry x="620" y="130" width="170" height="30" as="geometry" />
        </mxCell>
        <mxCell id="-IM5MBNO5oqZeWWgMELS-32" value="" style="endArrow=classic;html=1;" edge="1" parent="1">
          <mxGeometry width="50" height="50" relative="1" as="geometry">
            <mxPoint x="610" y="140" as="sourcePoint" />
            <mxPoint x="760" y="170" as="targetPoint" />
          </mxGeometry>
        </mxCell>
        <mxCell id="-IM5MBNO5oqZeWWgMELS-33" value="&lt;span style=&quot;color: rgb(0, 0, 0); font-family: helvetica; font-size: 11px; font-style: normal; font-weight: 400; letter-spacing: normal; text-align: center; text-indent: 0px; text-transform: none; word-spacing: 0px; background-color: rgb(255, 255, 255); display: inline; float: none;&quot;&gt;4.Generate Captain Health_Info()&lt;/span&gt;" style="text;whiteSpace=wrap;html=1;rotation=10;" vertex="1" parent="1">
          <mxGeometry x="580" y="170" width="200" height="30" as="geometry" />
        </mxCell>
        <mxCell id="-IM5MBNO5oqZeWWgMELS-34" value="" style="endArrow=classic;html=1;entryX=0;entryY=1;entryDx=0;entryDy=0;" edge="1" parent="1">
          <mxGeometry width="50" height="50" relative="1" as="geometry">
            <mxPoint x="756" y="220.00000000000003" as="sourcePoint" />
            <mxPoint x="584.9145020337753" y="182.40729852849006" as="targetPoint" />
          </mxGeometry>
        </mxCell>
        <mxCell id="-IM5MBNO5oqZeWWgMELS-35" value="" style="endArrow=classic;html=1;" edge="1" parent="1">
          <mxGeometry width="50" height="50" relative="1" as="geometry">
            <mxPoint x="260" y="80" as="sourcePoint" />
            <mxPoint x="190" y="60" as="targetPoint" />
          </mxGeometry>
        </mxCell>
        <mxCell id="-IM5MBNO5oqZeWWgMELS-36" value="&lt;span style=&quot;color: rgb(0, 0, 0); font-family: helvetica; font-size: 11px; font-style: normal; font-weight: 400; letter-spacing: normal; text-align: center; text-indent: 0px; text-transform: none; word-spacing: 0px; background-color: rgb(255, 255, 255); display: inline; float: none;&quot;&gt;6.Wake up all the crew()&lt;/span&gt;" style="text;whiteSpace=wrap;html=1;rotation=15;" vertex="1" parent="1">
          <mxGeometry x="150" y="40" width="150" height="30" as="geometry" />
        </mxCell>
        <mxCell id="-IM5MBNO5oqZeWWgMELS-37" value="&lt;span style=&quot;color: rgb(0, 0, 0); font-family: helvetica; font-size: 11px; font-style: normal; font-weight: 400; letter-spacing: normal; text-align: center; text-indent: 0px; text-transform: none; word-spacing: 0px; background-color: rgb(255, 255, 255); display: inline; float: none;&quot;&gt;7.Launch an election()&lt;/span&gt;" style="text;whiteSpace=wrap;html=1;rotation=-45;" vertex="1" parent="1">
          <mxGeometry x="110" y="140" width="140" height="30" as="geometry" />
        </mxCell>
        <mxCell id="-IM5MBNO5oqZeWWgMELS-38" value="" style="endArrow=classic;html=1;" edge="1" parent="1">
          <mxGeometry width="50" height="50" relative="1" as="geometry">
            <mxPoint x="240" y="140" as="sourcePoint" />
            <mxPoint x="160" y="230" as="targetPoint" />
          </mxGeometry>
        </mxCell>
        <mxCell id="-IM5MBNO5oqZeWWgMELS-39" value="&lt;span style=&quot;color: rgb(51, 51, 51); font-family: helvetica; font-size: 12px; font-style: normal; font-weight: 400; letter-spacing: normal; text-align: center; text-indent: 0px; text-transform: none; word-spacing: 0px; background-color: rgb(255, 255, 255); display: inline; float: none;&quot;&gt;8.Vote for new captain()&lt;/span&gt;" style="text;whiteSpace=wrap;html=1;rotation=-45;" vertex="1" parent="1">
          <mxGeometry x="170" y="210" width="150" height="30" as="geometry" />
        </mxCell>
        <mxCell id="-IM5MBNO5oqZeWWgMELS-40" value="" style="endArrow=classic;html=1;" edge="1" parent="1">
          <mxGeometry width="50" height="50" relative="1" as="geometry">
            <mxPoint x="190" y="250" as="sourcePoint" />
            <mxPoint x="260" y="170" as="targetPoint" />
          </mxGeometry>
        </mxCell>
        <mxCell id="-IM5MBNO5oqZeWWgMELS-41" value="&lt;span style=&quot;color: rgb(0 , 0 , 0) ; font-family: &amp;#34;helvetica&amp;#34; ; font-style: normal ; font-weight: 400 ; letter-spacing: normal ; text-align: center ; text-indent: 0px ; text-transform: none ; word-spacing: 0px ; background-color: rgb(255 , 255 , 255) ; display: inline ; float: none&quot;&gt;&lt;font style=&quot;font-size: 9px&quot;&gt;9.Launch a new election with top two candidates&lt;/font&gt;&lt;/span&gt;" style="text;whiteSpace=wrap;html=1;rotation=-45;" vertex="1" parent="1">
          <mxGeometry x="110" y="150" width="157.32" height="20" as="geometry" />
        </mxCell>
        <mxCell id="-IM5MBNO5oqZeWWgMELS-42" value="&lt;span style=&quot;color: rgb(51, 51, 51); font-family: helvetica; font-size: 12px; font-style: normal; font-weight: 400; letter-spacing: normal; text-align: center; text-indent: 0px; text-transform: none; word-spacing: 0px; background-color: rgb(255, 255, 255); display: inline; float: none;&quot;&gt;10.Vote for new captain()&lt;/span&gt;" style="text;whiteSpace=wrap;html=1;rotation=-45;" vertex="1" parent="1">
          <mxGeometry x="180" y="220" width="160" height="30" as="geometry" />
        </mxCell>
        <mxCell id="-IM5MBNO5oqZeWWgMELS-43" value="&lt;span style=&quot;color: rgb(0, 0, 0); font-family: helvetica; font-size: 11px; font-style: normal; font-weight: 400; letter-spacing: normal; text-align: center; text-indent: 0px; text-transform: none; word-spacing: 0px; background-color: rgb(255, 255, 255); display: inline; float: none;&quot;&gt;12.Login()&lt;/span&gt;" style="text;whiteSpace=wrap;html=1;rotation=30;" vertex="1" parent="1">
          <mxGeometry x="340" y="240.00000000000003" width="80" height="30" as="geometry" />
        </mxCell>
        <mxCell id="-IM5MBNO5oqZeWWgMELS-44" value="" style="endArrow=classic;html=1;" edge="1" parent="1">
          <mxGeometry width="50" height="50" relative="1" as="geometry">
            <mxPoint x="350" y="210" as="sourcePoint" />
            <mxPoint x="420" y="260" as="targetPoint" />
          </mxGeometry>
        </mxCell>
        <mxCell id="-IM5MBNO5oqZeWWgMELS-45" value="&lt;span style=&quot;color: rgb(0, 0, 0); font-family: helvetica; font-size: 11px; font-style: normal; font-weight: 400; letter-spacing: normal; text-align: center; text-indent: 0px; text-transform: none; word-spacing: 0px; background-color: rgb(255, 255, 255); display: inline; float: none;&quot;&gt;14.Set new captain()&lt;/span&gt;" style="text;whiteSpace=wrap;html=1;rotation=30;" vertex="1" parent="1">
          <mxGeometry x="316" y="257.59" width="140" height="30" as="geometry" />
        </mxCell>
        <mxCell id="-IM5MBNO5oqZeWWgMELS-46" value="&lt;span style=&quot;color: rgb(0, 0, 0); font-family: helvetica; font-size: 11px; font-style: normal; font-weight: 400; letter-spacing: normal; text-align: center; text-indent: 0px; text-transform: none; word-spacing: 0px; background-color: rgb(255, 255, 255); display: inline; float: none;&quot;&gt;13.Verify AI Identity()&lt;/span&gt;" style="text;whiteSpace=wrap;html=1;" vertex="1" parent="1">
          <mxGeometry x="580" y="260" width="140" height="30" as="geometry" />
        </mxCell>
        <mxCell id="-IM5MBNO5oqZeWWgMELS-47" value="&lt;span style=&quot;color: rgb(0, 0, 0); font-family: helvetica; font-size: 11px; font-style: normal; font-weight: 400; letter-spacing: normal; text-align: center; text-indent: 0px; text-transform: none; word-spacing: 0px; background-color: rgb(255, 255, 255); display: inline; float: none;&quot;&gt;15.Modify person Status&lt;/span&gt;" style="text;whiteSpace=wrap;html=1;" vertex="1" parent="1">
          <mxGeometry x="600" y="310" width="160" height="30" as="geometry" />
        </mxCell>
        <mxCell id="-IM5MBNO5oqZeWWgMELS-48" value="" style="endArrow=classic;html=1;entryX=0.692;entryY=1.067;entryDx=0;entryDy=0;entryPerimeter=0;exitX=0.125;exitY=1.067;exitDx=0;exitDy=0;exitPerimeter=0;" edge="1" parent="1" source="-IM5MBNO5oqZeWWgMELS-47" target="-IM5MBNO5oqZeWWgMELS-47">
          <mxGeometry width="50" height="50" relative="1" as="geometry">
            <mxPoint x="630" y="430" as="sourcePoint" />
            <mxPoint x="680" y="380" as="targetPoint" />
          </mxGeometry>
        </mxCell>
      </root>
    </mxGraphModel>
  </diagram>
</mxfile>
